<svg width="24" height="20" viewBox="0 0 24 20" fill="none" xmlns="http://www.w3.org/2000/svg">
<path d="M6.16669 18.3334C5.70835 18.3334 5.31599 18.1702 4.9896 17.8438C4.66321 17.5174 4.50002 17.1251 4.50002 16.6667V7.27091C4.25002 7.11814 4.04863 6.92022 3.89585 6.67716C3.74308 6.43411 3.66669 6.15286 3.66669 5.83341V3.33341C3.66669 2.87508 3.82988 2.48272 4.15627 2.15633C4.48266 1.82994 4.87502 1.66675 5.33335 1.66675H18.6667C19.125 1.66675 19.5174 1.82994 19.8438 2.15633C20.1702 2.48272 20.3334 2.87508 20.3334 3.33341V5.83341C20.3334 6.15286 20.257 6.43411 20.1042 6.67716C19.9514 6.92022 19.75 7.11814 19.5 7.27091V16.6667C19.5 17.1251 19.3368 17.5174 19.0104 17.8438C18.684 18.1702 18.2917 18.3334 17.8334 18.3334H6.16669ZM5.33335 5.83341H18.6667V3.33341H5.33335V5.83341ZM9.50002 11.6667H14.5V10.0001H9.50002V11.6667Z" fill="black"/>
</svg>
