<svg width="21" height="21" viewBox="0 0 20 21" fill="none" xmlns="http://www.w3.org/2000/svg">
<path d="M10 0.941162C12.6522 0.941162 15.1957 1.99473 17.0711 3.87009C18.9464 5.74546 20 8.289 20 10.9412C20 13.5933 18.9464 16.1369 17.0711 18.0122C15.1957 19.8876 12.6522 20.9412 10 20.9412C7.34784 20.9412 4.8043 19.8876 2.92893 18.0122C1.05357 16.1369 0 13.5933 0 10.9412C0 8.289 1.05357 5.74546 2.92893 3.87009C4.8043 1.99473 7.34784 0.941162 10 0.941162ZM11.3275 6.33116C11.3275 5.99964 11.1958 5.6817 10.9614 5.44728C10.727 5.21286 10.409 5.08116 10.0775 5.08116C9.74598 5.08116 9.42804 5.21286 9.19362 5.44728C8.9592 5.6817 8.8275 5.99964 8.8275 6.33116V9.76866H5.39C5.05848 9.76866 4.74054 9.90036 4.50612 10.1348C4.2717 10.3692 4.14 10.6871 4.14 11.0187C4.14 11.3502 4.2717 11.6681 4.50612 11.9025C4.74054 12.137 5.05848 12.2687 5.39 12.2687H8.8275V15.7062C8.8275 16.0377 8.9592 16.3556 9.19362 16.59C9.42804 16.8245 9.74598 16.9562 10.0775 16.9562C10.409 16.9562 10.727 16.8245 10.9614 16.59C11.1958 16.3556 11.3275 16.0377 11.3275 15.7062V12.2687H14.765C15.0965 12.2687 15.4145 12.137 15.6489 11.9025C15.8833 11.6681 16.015 11.3502 16.015 11.0187C16.015 10.6871 15.8833 10.3692 15.6489 10.1348C15.4145 9.90036 15.0965 9.76866 14.765 9.76866H11.3275V6.33116Z" fill="black"/>
</svg>
