<svg width="21" height="21" viewBox="0 0 20 21" fill="none" xmlns="http://www.w3.org/2000/svg">
<path fill-rule="evenodd" clip-rule="evenodd" d="M0 10.7479C0 8.09573 1.05357 5.55219 2.92893 3.67683C4.8043 1.80146 7.34784 0.747894 10 0.747894C12.6522 0.747894 15.1957 1.80146 17.0711 3.67683C18.9464 5.55219 20 8.09573 20 10.7479C20 13.4001 18.9464 15.9436 17.0711 17.819C15.1957 19.6943 12.6522 20.7479 10 20.7479C7.34784 20.7479 4.8043 19.6943 2.92893 17.819C1.05357 15.9436 0 13.4001 0 10.7479ZM10.8613 6.27589C10.9233 6.21381 10.9968 6.16455 11.0778 6.13094C11.1588 6.09734 11.2456 6.08004 11.3333 6.08004C11.421 6.08004 11.5079 6.09734 11.5888 6.13094C11.6698 6.16455 11.7434 6.21381 11.8053 6.27589L14.472 8.94256C14.5341 9.00449 14.5833 9.07806 14.617 9.15905C14.6506 9.24004 14.6679 9.32687 14.6679 9.41456C14.6679 9.50225 14.6506 9.58908 14.617 9.67007C14.5833 9.75107 14.5341 9.82463 14.472 9.88656L8.94267 15.4146H6C5.82319 15.4146 5.65362 15.3443 5.5286 15.2193C5.40357 15.0943 5.33333 14.9247 5.33333 14.7479V11.8052L10.8613 6.27589Z" fill="black"/>
</svg>
