<svg width="17" height="18" viewBox="0 0 17 18" fill="none" xmlns="http://www.w3.org/2000/svg">
<path d="M4 6.08701C4 4.87381 4.47411 3.71029 5.31802 2.85242C6.16193 1.99455 7.30653 1.5126 8.5 1.5126C9.69347 1.5126 10.8381 1.99455 11.682 2.85242C12.5259 3.71029 13 4.87381 13 6.08701C13 11.4238 15.25 12.9486 15.25 12.9486H1.75C1.75 12.9486 4 11.4238 4 6.08701ZM7.225 15.9982C7.35054 16.2303 7.53509 16.4239 7.75937 16.5587C7.98365 16.6936 8.23943 16.7647 8.5 16.7647C8.76057 16.7647 9.01635 16.6936 9.24063 16.5587C9.46491 16.4239 9.64946 16.2303 9.775 15.9982M2.5 1.5126C1.6 2.80869 1 4.33349 1 6.08701L2.5 1.5126ZM16 6.08701C16 4.33349 15.4 2.80869 14.5 1.5126L16 6.08701Z" fill="black"/>
<path d="M7.225 15.9982C7.35054 16.2303 7.53509 16.4239 7.75937 16.5587C7.98365 16.6936 8.23943 16.7647 8.5 16.7647C8.76057 16.7647 9.01635 16.6936 9.24063 16.5587C9.46491 16.4239 9.64946 16.2303 9.775 15.9982M2.5 1.5126C1.6 2.80869 1 4.33349 1 6.08701M16 6.08701C16 4.33349 15.4 2.80869 14.5 1.5126M4 6.08701C4 4.87381 4.47411 3.71029 5.31802 2.85242C6.16193 1.99455 7.30653 1.5126 8.5 1.5126C9.69347 1.5126 10.8381 1.99455 11.682 2.85242C12.5259 3.71029 13 4.87381 13 6.08701C13 11.4238 15.25 12.9486 15.25 12.9486H1.75C1.75 12.9486 4 11.4238 4 6.08701Z" stroke="black" stroke-width="1.5" stroke-linecap="round" stroke-linejoin="round"/>
</svg>
