<svg width="16" height="16" viewBox="0 0 16 16" fill="none" xmlns="http://www.w3.org/2000/svg">
<path d="M6.386 4.20669e-07C5.38651 0.000534643 4.40108 0.235542 3.50892 0.686135C2.61677 1.13673 1.84276 1.79034 1.24911 2.59443C0.655466 3.39852 0.25874 4.33067 0.0908199 5.31595C-0.0771004 6.30124 -0.0115313 7.31217 0.282258 8.26751C0.576046 9.22285 1.08986 10.0959 1.7824 10.8166C2.47494 11.5373 3.3269 12.0854 4.26979 12.417C5.21268 12.7486 6.2202 12.8543 7.21139 12.7257C8.20257 12.5972 9.14977 12.2378 9.97685 11.6767L13.9255 15.6221C14.0352 15.7398 14.1674 15.8342 14.3144 15.8997C14.4614 15.9652 14.62 16.0004 14.7808 16.0032C14.9417 16.0061 15.1015 15.9765 15.2507 15.9162C15.3998 15.856 15.5353 15.7663 15.6491 15.6525C15.7629 15.5388 15.8526 15.4033 15.9128 15.2541C15.9731 15.1049 16.0027 14.9451 15.9998 14.7843C15.997 14.6234 15.9618 14.4648 15.8963 14.3178C15.8308 14.1709 15.7364 14.0386 15.6187 13.9289L11.6732 9.98027C12.326 9.01959 12.7045 7.89916 12.7681 6.73945C12.8318 5.57975 12.5781 4.42463 12.0344 3.39831C11.4906 2.37198 10.6775 1.51328 9.68226 0.914512C8.68704 0.315748 7.54745 -0.000420969 6.386 4.20669e-07ZM2.39261 6.38941C2.39261 5.3303 2.81334 4.31457 3.56225 3.56567C4.31115 2.81676 5.32689 2.39603 6.386 2.39603C7.44511 2.39603 8.46084 2.81676 9.20975 3.56567C9.95865 4.31457 10.3794 5.3303 10.3794 6.38941C10.3794 7.44853 9.95865 8.46426 9.20975 9.21316C8.46084 9.96207 7.44511 10.3828 6.386 10.3828C5.32689 10.3828 4.31115 9.96207 3.56225 9.21316C2.81334 8.46426 2.39261 7.44853 2.39261 6.38941Z" fill="white" fill-opacity="0.7"/>
</svg>
