<svg width="20" height="20" viewBox="0 0 20 20" fill="none" xmlns="http://www.w3.org/2000/svg">
<path d="M7.98506 5.25724e-07C6.73597 0.000668161 5.50445 0.294365 4.38949 0.857485C3.27453 1.42061 2.30723 2.23744 1.56533 3.24234C0.82343 4.24724 0.327629 5.41218 0.117773 6.64352C-0.0920825 7.87486 -0.0101386 9.13826 0.357019 10.3322C0.724177 11.5261 1.36631 12.6172 2.2318 13.5179C3.09729 14.4185 4.16201 15.1036 5.34037 15.5179C6.51873 15.9323 7.77787 16.0645 9.01658 15.9038C10.2553 15.7431 11.439 15.294 12.4727 14.5927L17.4074 19.5235C17.5445 19.6706 17.7098 19.7886 17.8934 19.8704C18.0771 19.9522 18.2754 19.9962 18.4764 19.9998C18.6774 20.0033 18.8771 19.9663 19.0635 19.891C19.25 19.8157 19.4193 19.7036 19.5615 19.5615C19.7036 19.4193 19.8157 19.25 19.891 19.0635C19.9663 18.8771 20.0033 18.6774 19.9998 18.4764C19.9962 18.2754 19.9522 18.0771 19.8704 17.8934C19.7886 17.7098 19.6706 17.5445 19.5235 17.4074L14.5927 12.4727C15.4084 11.2721 15.8815 9.87184 15.961 8.42252C16.0405 6.97319 15.7235 5.52961 15.044 4.24698C14.3645 2.96435 13.3483 1.89119 12.1045 1.1429C10.8608 0.3946 9.43657 -0.000526098 7.98506 5.25724e-07ZM2.9944 7.98506C2.9944 6.66146 3.5202 5.39206 4.45613 4.45613C5.39206 3.5202 6.66146 2.9944 7.98506 2.9944C9.30867 2.9944 10.5781 3.5202 11.514 4.45613C12.4499 5.39206 12.9757 6.66146 12.9757 7.98506C12.9757 9.30867 12.4499 10.5781 11.514 11.514C10.5781 12.4499 9.30867 12.9757 7.98506 12.9757C6.66146 12.9757 5.39206 12.4499 4.45613 11.514C3.5202 10.5781 2.9944 9.30867 2.9944 7.98506Z" fill="black"/>
</svg>
