<svg width="32" height="32" viewBox="0 0 32 32" fill="none" xmlns="http://www.w3.org/2000/svg">
<path d="M12.7898 19.2102H3.21019C2.32696 19.2102 1.57113 18.896 0.942675 18.2675C0.314225 17.6391 0 16.8832 0 16C0 15.1168 0.314225 14.3609 0.942675 13.7325C1.57113 13.104 2.32696 12.7898 3.21019 12.7898H12.7898V3.21019C12.7898 2.32696 13.104 1.57113 13.7325 0.942675C14.3609 0.314225 15.1168 0 16 0C16.8832 0 17.6391 0.314225 18.2675 0.942675C18.896 1.57113 19.2102 2.32696 19.2102 3.21019V12.7898H28.7898C29.673 12.7898 30.4289 13.104 31.0573 13.7325C31.6858 14.3609 32 15.1168 32 16C32 16.8832 31.6858 17.6391 31.0573 18.2675C30.4289 18.896 29.673 19.2102 28.7898 19.2102H19.2102V28.7898C19.2102 29.673 18.896 30.4289 18.2675 31.0573C17.6391 31.6858 16.8832 32 16 32C15.1168 32 14.3609 31.6858 13.7325 31.0573C13.104 30.4289 12.7898 29.673 12.7898 28.7898V19.2102Z" fill="black"/>
</svg>
