<svg width="15" height="19" viewBox="0 0 15 19" fill="none" xmlns="http://www.w3.org/2000/svg">
<mask id="mask0_48_124" style="mask-type:luminance" maskUnits="userSpaceOnUse" x="0" y="0" width="15" height="19">
<path d="M1.09998 2.01092C1.09998 1.79519 1.18426 1.58828 1.33429 1.43573C1.48432 1.28318 1.6878 1.19748 1.89998 1.19748H9.89998L13.9 5.26471V16.6529C13.9 16.8687 13.8157 17.0756 13.6657 17.2281C13.5156 17.3807 13.3121 17.4664 13.1 17.4664H1.89998C1.6878 17.4664 1.48432 17.3807 1.33429 17.2281C1.18426 17.0756 1.09998 16.8687 1.09998 16.6529V2.01092Z" fill="white" stroke="white" stroke-width="1.6" stroke-linejoin="round"/>
<path d="M4.29999 7.70505H10.7M4.29999 10.9588H10.7" stroke="black" stroke-width="1.6" stroke-linecap="round" stroke-linejoin="round"/>
</mask>
<g mask="url(#mask0_48_124)">
<path d="M-2.10004 -0.429413H17.1V19.0933H-2.10004V-0.429413Z" fill="black"/>
</g>
</svg>
