<svg width="21" height="21" viewBox="0 0 21 21" fill="none" xmlns="http://www.w3.org/2000/svg">
<path d="M0.799988 10.3513C0.799988 7.69909 1.85356 5.15555 3.72892 3.28019C5.60428 1.40483 8.14782 0.351257 10.8 0.351257C13.4522 0.351257 15.9957 1.40483 17.8711 3.28019C19.7464 5.15555 20.8 7.69909 20.8 10.3513C20.8 13.0034 19.7464 15.547 17.8711 17.4223C15.9957 19.2977 13.4522 20.3513 10.8 20.3513C8.14782 20.3513 5.60428 19.2977 3.72892 17.4223C1.85356 15.547 0.799988 13.0034 0.799988 10.3513ZM5.79999 8.47626V12.2263C5.79999 12.7235 5.99753 13.2005 6.34916 13.5521C6.70079 13.9037 7.17771 14.1013 7.67499 14.1013H12.7475C13.2475 14.1013 13.7337 13.93 14.1225 13.6138L16.355 11.8088C16.5722 11.633 16.7473 11.4109 16.8677 11.1587C16.988 10.9065 17.0504 10.6307 17.0504 10.3513C17.0504 10.0718 16.988 9.79597 16.8677 9.5438C16.7473 9.29162 16.5722 9.06953 16.355 8.89376L14.1225 7.08876C13.7334 6.77371 13.2481 6.60163 12.7475 6.60126H7.67499C7.17771 6.60126 6.70079 6.7988 6.34916 7.15043C5.99753 7.50206 5.79999 7.97898 5.79999 8.47626Z" fill="black"/>
</svg>
